# xmcd
#
# Track frame offsets:
#	150
#	16413
#	26266
#	46244
#	57458
#	71239
#	82630
#	100578
#	116734
#	138219
#	152498
#	174995
#
# Disc length: 2487 seconds
#
# Revision: 1
# Processed by: cddbd v1.5.2PL0 Copyright (c) Steve Scherf et al.
# Submitted via: audiograbber 1.83.01
#
DISCID=8a09b50c
DTITLE=Nordmacht - Ihre Ehre heisst Treue
DYEAR=1900
DGENRE=
TTITLE0=Ihre Ehre heisst Treue
TTITLE1=Hass
TTITLE2=Wikinger
TTITLE3=Anarchie
TTITLE4=Verräter
TTITLE5=Heil
TTITLE6=Tod durch unvergessen
TTITLE7=Es ist dein Leben
TTITLE8=Wollt ihr wirklich
TTITLE9=Doch wir werden kämpfen
TTITLE10=Ehre den Freiwilligen
TTITLE11=Der Landser
EXTD=
EXTT0=
EXTT1=
EXTT2=
EXTT3=
EXTT4=
EXTT5=
EXTT6=
EXTT7=
EXTT8=
EXTT9=
EXTT10=
EXTT11=
PLAYORDER=
